<svg width="500" height="500" viewBox="0 0 500 500" fill="none" xmlns="http://www.w3.org/2000/svg">
<rect y="259.361" width="366.792" height="340.314" rx="29" transform="rotate(-45 0 259.361)" fill="white"/>
<path fill-rule="evenodd" clip-rule="evenodd" d="M20.5061 238.855C9.18091 250.181 9.18091 268.542 20.5061 279.867L190.45 449.811V351.495V309.202V168.099V128.157C190.45 117.111 199.404 108.157 210.45 108.157H367.518L279.868 20.5061C268.542 9.18086 250.181 9.18089 238.855 20.5061L20.5061 238.855ZM272.743 188.099V289.202H353.846C364.892 289.202 373.846 298.156 373.846 309.202V351.495C373.846 362.541 364.892 371.495 353.846 371.495H272.743V467.895L479.494 261.145C490.819 249.819 490.819 231.458 479.494 220.132L447.46 188.099H272.743Z" fill="#FBA00E"/>
</svg>
